<svg width="32" height="32" viewBox="0 0 32 32" fill="none" xmlns="http://www.w3.org/2000/svg">
<path d="M16 32C24.8366 32 32 24.8366 32 16C32 7.16344 24.8366 0 16 0C7.16344 0 0 7.16344 0 16C0 24.8366 7.16344 32 16 32Z" fill="url(#paint0_linear_2788_96)"/>
<path d="M25.8718 14.4118C25.8564 14.3212 25.7538 14.2733 25.6734 14.3195L23.4043 15.6293C23.3342 15.6703 23.2915 15.7473 23.2949 15.8277C23.2966 15.8841 23.2983 15.9405 23.2983 15.9986C23.2983 20.0306 20.0306 23.2983 15.9986 23.2983C13.6098 23.2983 11.4895 22.1492 10.1591 20.3743C10.1044 20.3025 10.1284 20.1982 10.2053 20.1538L13.1994 18.425C13.9073 19.0286 14.8256 19.3946 15.8293 19.3946C18.071 19.3946 19.887 17.5786 19.887 15.3369C19.887 15.0855 19.863 14.841 19.8186 14.6034L24.8817 11.6811C24.9433 11.6452 24.9655 11.5682 24.9347 11.5067C23.2487 8.16036 19.7382 5.88958 15.7079 6.00415C10.5131 6.15291 6.25022 10.3354 6.01083 15.5267C5.7475 21.2652 10.3199 26 16.0003 26C21.5234 26 26 21.5234 26 16.0004C26 15.4583 25.9538 14.9282 25.8718 14.4118ZM8.8784 17.582C8.76383 17.0725 8.70057 16.5424 8.70057 15.9969C8.70057 11.9649 11.9683 8.69728 16.0003 8.69728C17.9325 8.69728 19.6886 9.44964 20.995 10.6757C21.0429 10.7218 21.0326 10.8005 20.9762 10.8347L18.4882 12.271C17.7769 11.652 16.8484 11.2775 15.831 11.2775C13.5893 11.2775 11.7733 13.0935 11.7733 15.3352C11.7733 15.5985 11.8007 15.855 11.8486 16.1047L9.11779 17.6812C9.02204 17.7376 8.90234 17.6863 8.8784 17.582ZM9.21355 18.8799L13.933 16.156V14.2426L15.8276 13.1482L17.4845 14.1041L21.826 11.5973L22.0825 12.0402L17.7222 14.5572V16.4296L15.8276 17.5239L14.2049 16.5869L9.46833 19.321L9.21355 18.8799Z" fill="white"/>
<defs>
<linearGradient id="paint0_linear_2788_96" x1="16" y1="32" x2="16" y2="0" gradientUnits="userSpaceOnUse">
<stop stop-color="#1B0F5D"/>
<stop offset="1" stop-color="#0086F7"/>
</linearGradient>
</defs>
</svg>
